# xmcd
#
# Track frame offsets:
#	150
#	24792
#	42520
#	62987
#	76637
#	92442
#	111592
#	127955
#	141560
#	156465
#	172065
#	193800
#	209887
#	225732
#	243297
#
# Disc length: 3550 seconds
#
# Revision: 1
# Processed by: cddbd v1.5.2PL0 Copyright (c) Steve Scherf et al.
# Submitted via: EasyCDDAExtractor 2010.6.0.0
#
DISCID=d90ddc0f
DTITLE=Various Artist - Bass Mixx Party Classics
DYEAR=1900
DGENRE=MISC
TTITLE0=The 2 Live Crew - 2 Live Megamix  DJ Laz and Felix Sama
TTITLE1=The 2 Live Crew - Do Wah Diddy
TTITLE2=Society - Yes Indeed
TTITLE3=Home Team - Pick It Up
TTITLE4=Home Team - Back To The Bronx
TTITLE5=Lejuan Love - Everybody Say Yeah
TTITLE6=Lejuan Love - It's Been A Long Time
TTITLE7=The 2 Live Crew - Hoochie Mama
TTITLE8=Luke - Breakdown Ghetto Style Mix
TTITLE9=Luke - It's Your Birthday Bonus Mix
TTITLE10=True Two - I Was At A Jam
TTITLE11=The 2 Live Crew - Do The Wild Thing
TTITLE12=The 2 Live Crew - Be My Private Dancer DJ Spin Remix
TTITLE13=The 2 Live Crew - Shake Your Pants
TTITLE14=DJ Gusto - Megamix
EXTD=
EXTT0=
EXTT1=
EXTT2=
EXTT3=
EXTT4=
EXTT5=
EXTT6=
EXTT7=
EXTT8=
EXTT9=
EXTT10=
EXTT11=
EXTT12=
EXTT13=
EXTT14=
PLAYORDER=
